<svg viewBox="0 0 200 240" xmlns="http://www.w3.org/2000/svg">
  <!-- Astronaut -->
  <g transform="translate(100, 120)">
    <!-- Helmet -->
    <circle cx="0" cy="0" r="50" fill="#D0D0D0" stroke="#A0A0A0" stroke-width="4"/>
    <circle cx="0" cy="0" r="40" fill="#7DB9E8" stroke="#5A9AD2" stroke-width="2"/>
    <path d="M-15,-10 Q0,-20 15,-10" fill="none" stroke="white" stroke-width="2"/>

    <!-- Face shield glare -->
    <path d="M-20,-15 Q-10,-25 0,-25 Q10,-25 20,-15" fill="none" stroke="white" stroke-width="3" stroke-opacity="0.7"/>
    <path d="M-15,-5 L-10,-10 L-5,-5" fill="none" stroke="white" stroke-width="1.5" stroke-opacity="0.9"/>

    <!-- Body -->
    <path d="M-45,15 Q-45,50 -30,70 L30,70 Q45,50 45,15 Z" fill="#F0F0F0" stroke="#D0D0D0" stroke-width="4"/>

    <!-- Backpack -->
    <rect x="-30" y="20" width="60" height="40" rx="5" fill="#C0C0C0" stroke="#A0A0A0" stroke-width="2"/>
    <rect x="-20" y="25" width="40" height="10" rx="2" fill="#A0A0A0"/>
    <rect x="-20" y="40" width="40" height="10" rx="2" fill="#A0A0A0"/>

    <!-- Arms -->
    <path d="M-45,20 Q-65,40 -60,70 L-50,70 Q-50,45 -35,25 Z" fill="#F0F0F0" stroke="#D0D0D0" stroke-width="3"/>
    <path d="M45,20 Q65,40 60,70 L50,70 Q50,45 35,25 Z" fill="#F0F0F0" stroke="#D0D0D0" stroke-width="3"/>

    <!-- Hands -->
    <circle cx="-55" cy="70" r="10" fill="#D0D0D0" stroke="#A0A0A0" stroke-width="2"/>
    <circle cx="55" cy="70" r="10" fill="#D0D0D0" stroke="#A0A0A0" stroke-width="2"/>

    <!-- Legs -->
    <path d="M-20,70 L-25,120 Q-25,130 -15,130 L-5,130 Q0,130 0,120 L-5,70 Z" fill="#F0F0F0" stroke="#D0D0D0" stroke-width="3"/>
    <path d="M20,70 L25,120 Q25,130 15,130 L5,130 Q0,130 0,120 L5,70 Z" fill="#F0F0F0" stroke="#D0D0D0" stroke-width="3"/>

    <!-- Boots -->
    <path d="M-25,130 L-30,140 Q-30,150 -15,150 L-5,150 Q0,150 0,145 L0,130 Q-5,130 -15,130 Z" fill="#A0A0A0" stroke="#808080" stroke-width="2"/>
    <path d="M25,130 L30,140 Q30,150 15,150 L5,150 Q0,150 0,145 L0,130 Q5,130 15,130 Z" fill="#A0A0A0" stroke="#808080" stroke-width="2"/>
  </g>
</svg>
